# xmcd
#
# Track frame offsets:
#	150
#	21159
#	40778
#	75480
#	93382
#	116061
#	130099
#	149891
#	170740
#	181206
#	200285
#	228381
#
# Disc length: 3368 seconds
# Revision: 0
# Processed by: cddbd v1.4PL0 Copyright (c) Steve Scherf et al.
# Submitted via: cdrLabel 7.0
#
DISCID=a10d260c
DTITLE=Carlos Santana - The Best
DYEAR=1994
DGENRE=Rock
TTITLE0=Samba Pa Ti
TTITLE1=Oye como va
TTITLE2=All the love of the universe
TTITLE3=Waves within
TTITLE4=Incident at Neshabur
TTITLE5=Look up to see what's coming down
TTITLE6=Mother's daughter
TTITLE7=La fuente del ritmo
TTITLE8=Just in time to see the sun
TTITLE9=Hope you're feeling better
TTITLE10=Song of the wind
TTITLE11=Black magic woman/Gypsy queen
EXTD=
EXTT0=
EXTT1=
EXTT2=
EXTT3=
EXTT4=
EXTT5=
EXTT6=
EXTT7=
EXTT8=
EXTT9=
EXTT10=
EXTT11=
PLAYORDER=
